<svg width="446" height="157" viewBox="0 0 446 157" fill="none" xmlns="http://www.w3.org/2000/svg">
<g clip-path="url(#clip0_1409_1029)">
<path d="M49.9842 154.43C49.9842 154.514 49.956 154.598 49.8995 154.681C49.8429 154.765 49.7582 154.849 49.6433 154.931C49.5302 155.013 49.3908 155.096 49.2213 155.176C49.0536 155.256 48.8577 155.335 48.6373 155.413C48.415 155.492 48.1664 155.567 47.8932 155.641C47.6201 155.716 47.3224 155.787 47.0003 155.858C46.6781 155.927 46.3334 155.995 45.9642 156.06C45.5968 156.125 45.2069 156.187 44.7981 156.247C44.3874 156.307 43.9579 156.363 43.5095 156.417C43.0612 156.469 42.5959 156.52 42.1136 156.566C41.6314 156.613 41.134 156.656 40.6235 156.697C40.1111 156.736 39.5874 156.772 39.0524 156.804C38.5174 156.837 37.9711 156.865 37.4153 156.89C36.8615 156.914 36.2982 156.935 35.7312 156.951C35.1623 156.966 34.5877 156.979 34.0113 156.989C33.4348 156.996 32.8546 157 32.2763 157C31.696 157 31.1177 156.996 30.5394 156.989C29.9629 156.979 29.3903 156.966 28.8213 156.951C28.2524 156.935 27.6891 156.914 27.1353 156.89C26.5796 156.865 26.0351 156.837 25.4983 156.804C24.9633 156.772 24.4396 156.736 23.9272 156.697C23.4166 156.656 22.9193 156.613 22.437 156.566C21.9548 156.52 21.4895 156.469 21.0411 156.417C20.5928 156.363 20.1633 156.307 19.7526 156.247C19.3438 156.187 18.9538 156.125 18.5865 156.06C18.2191 155.995 17.8725 155.927 17.5504 155.858C17.2283 155.787 16.9306 155.716 16.6575 155.641C16.3843 155.567 16.1356 155.492 15.9152 155.413C15.6929 155.335 15.497 155.256 15.3294 155.176C15.1598 155.096 15.0204 155.013 14.9074 154.931C14.7943 154.849 14.7077 154.765 14.6512 154.681C14.5947 154.598 14.5664 154.514 14.5664 154.43C14.5664 154.346 14.5947 154.262 14.6512 154.178C14.7077 154.094 14.7943 154.01 14.9074 153.928C15.0204 153.845 15.1598 153.763 15.3294 153.683C15.497 153.602 15.6929 153.524 15.9152 153.445C16.1356 153.369 16.3843 153.292 16.6575 153.217C16.9306 153.143 17.2283 153.072 17.5504 153.001C17.8725 152.931 18.2191 152.864 18.5865 152.799C18.9538 152.733 19.3438 152.672 19.7526 152.612C20.1633 152.552 20.5928 152.496 21.0411 152.442C21.4895 152.389 21.9548 152.339 22.437 152.292C22.9193 152.246 23.4166 152.203 23.9272 152.161C24.4396 152.122 24.9633 152.087 25.4983 152.055C26.0351 152.021 26.5796 151.993 27.1353 151.969C27.6891 151.945 28.2524 151.924 28.8213 151.907C29.3903 151.892 29.9629 151.879 30.5394 151.872C31.1177 151.862 31.696 151.859 32.2763 151.859C32.8546 151.859 33.4348 151.862 34.0113 151.872C34.5877 151.879 35.1623 151.892 35.7312 151.907C36.2982 151.924 36.8615 151.945 37.4153 151.969C37.9711 151.993 38.5174 152.021 39.0524 152.055C39.5874 152.087 40.1111 152.122 40.6235 152.161C41.134 152.203 41.6314 152.246 42.1136 152.292C42.5959 152.339 43.0612 152.389 43.5095 152.442C43.9579 152.496 44.3874 152.552 44.7981 152.612C45.2069 152.672 45.5968 152.733 45.9642 152.799C46.3334 152.864 46.6781 152.931 47.0003 153.001C47.3224 153.072 47.6201 153.143 47.8932 153.217C48.1664 153.292 48.415 153.369 48.6373 153.445C48.8577 153.524 49.0536 153.602 49.2213 153.683C49.3908 153.763 49.5302 153.845 49.6433 153.928C49.7582 154.01 49.8429 154.094 49.8995 154.178C49.956 154.262 49.9842 154.346 49.9842 154.43Z" fill="#DDDDDD"/>
<path d="M37.9801 104.459C37.5654 104.459 37.1458 104.41 36.7311 104.317C33.7451 103.621 31.8617 100.641 32.5399 97.626L32.818 96.3908C33.8817 91.6459 34.7892 87.5677 38.024 82.6071C38.4582 81.9405 38.9022 81.2934 39.3658 80.6268C41.9517 76.823 43.5227 74.3526 42.986 71.7252C42.7079 70.3675 41.815 69.1616 40.7075 68.6665C39.7512 68.2303 38.7022 68.3724 37.5019 69.0832C34.8526 70.6272 31.447 69.7449 29.8906 67.0735C28.339 64.4167 29.2319 61.0002 31.8959 59.4366C36.2236 56.9024 40.9661 56.5641 45.2353 58.466C49.6411 60.4267 52.8613 64.5393 53.8908 69.4557C55.4179 76.8574 51.6122 82.4208 48.5628 86.901L47.343 88.7098C45.2206 91.9694 44.6352 94.5526 43.6789 98.8319L43.4007 100.101C42.8006 102.694 40.5221 104.459 37.9801 104.459Z" fill="white" fill-opacity="0.9"/>
<path d="M32.2983 142.347C32.1474 142.347 31.9917 142.347 31.8213 142.347C21.097 142.161 12.4708 135.584 9.3212 125.219C8.43035 122.265 10.0903 119.139 13.0112 118.241C15.9758 117.357 19.0524 119.011 19.9433 121.956C21.6617 127.614 26.1646 131.069 32.0209 131.177C32.1134 131.177 32.1912 131.177 32.2691 131.177C37.4633 131.177 43.6409 128.238 45.9142 121.583C47.0388 118.319 47.4672 114.869 47.9442 111.232C48.6501 105.692 49.4484 99.4097 52.968 93.3291C53.9368 91.6555 54.9201 90.0949 55.8743 88.5637C59.2429 83.1946 61.9009 78.9397 62.0664 72.8443C62.3926 61.8854 58.6588 54.2146 51.2642 50.6222C43.305 46.7549 31.9284 48.394 24.8162 54.4305C20.9558 57.7089 16.9007 63.4951 19.4662 72.4566C20.3132 75.4257 18.6192 78.5225 15.6691 79.3715C12.7191 80.2206 9.66196 78.5225 8.80032 75.5484C5.5582 64.2411 8.78571 53.4245 17.6504 45.8862C28.0729 37.0376 44.225 34.7948 56.0738 40.5515C62.7138 43.7661 73.7643 52.3104 73.1509 73.1682C72.888 82.3113 68.9985 88.5146 65.2501 94.502C64.3592 95.9253 63.4343 97.3828 62.5435 98.9288C60.163 103.061 59.5934 107.503 58.9314 112.656C58.4251 116.695 57.8896 120.871 56.3951 125.219C52.895 135.526 43.2417 142.347 32.2983 142.347Z" fill="#F5F5F5"/>
<path d="M101.299 105.464C100.598 105.464 99.887 105.339 99.1861 105.085C96.1607 103.956 94.6454 100.678 95.8153 97.7627L96.1091 97.0414C97.2791 94.1212 100.696 92.6637 103.706 93.7929C106.737 94.9222 108.247 98.2005 107.077 101.121L106.783 101.842C105.886 104.081 103.66 105.464 101.299 105.464Z" fill="#F5F5F5" fill-opacity="0.62"/>
<path d="M104.277 92.6049C103.891 92.6049 103.505 92.5558 103.105 92.4772C100.104 91.8285 98.1903 88.8557 98.8248 85.8485C101.182 74.7385 100.826 63.3533 97.7755 52.9116C92.7972 35.8707 81.0103 22.7313 64.6015 15.9306C51.5798 10.5255 36.5424 10.0145 22.3201 14.5056C19.3771 15.4343 16.2632 13.7784 15.3554 10.8351C14.4281 7.89172 16.0631 4.74691 19.0061 3.81821C35.7078 -1.44933 53.4296 -0.830201 68.8672 5.58225C76.9774 8.94355 84.1412 13.6015 90.1741 19.3523C98.7107 27.4898 104.983 37.8154 108.469 49.752C112.047 61.9775 112.476 75.2495 109.719 88.1727C109.147 90.8065 106.834 92.6049 104.277 92.6049Z" fill="white" fill-opacity="0.3"/>
<path d="M5.55523 21.9276C3.65986 21.9276 1.81321 20.9338 0.785129 19.1561C-0.783791 16.4646 0.0786267 12.9691 2.70973 11.3612L3.65986 10.747C4.20069 10.4025 4.30789 10.3076 5.94015 9.50363C8.70768 8.15038 12.0307 9.32886 13.3511 12.1652C14.691 14.9965 13.5216 18.3821 10.7541 19.7554C10.2279 20.005 9.98426 20.1299 9.81372 20.2248C9.45803 20.4595 9.10722 20.6991 8.38123 21.1386C7.50907 21.6729 6.51997 21.9276 5.55523 21.9276Z" fill="#E0E0E0" fill-opacity="0.898"/>
<path d="M82.5393 98.4325C81.8465 98.4325 81.1446 98.2826 80.4655 97.9873C77.8355 96.8063 76.6231 93.6711 77.7763 90.967C78.3232 89.6688 78.8246 88.3379 79.2713 86.9928C80.192 84.2044 83.141 82.6953 85.8621 83.6561C88.5831 84.6027 90.0371 87.6302 89.1164 90.4233C88.5831 92.0496 87.9769 93.657 87.3024 95.2411C86.4546 97.2328 84.5403 98.4325 82.5393 98.4325Z" fill="white" fill-opacity="0.8"/>
<path d="M87.7432 79.3487C87.636 79.3487 87.5288 79.3487 87.4362 79.334C84.3754 79.1627 82.0213 76.5386 82.1919 73.4542C83.2349 54.8357 74.2963 39.7715 58.2954 33.1525C49.0741 29.3387 37.8448 29.231 27.4586 32.844C24.5343 33.8477 21.3955 32.3006 20.3964 29.4023C19.3924 26.4991 20.9179 23.3169 23.8276 22.3133C36.753 17.8239 50.8628 18.0246 62.5405 22.8567C82.806 31.2382 94.6056 50.8555 93.314 74.0711C93.1142 77.0477 90.6675 79.3487 87.7432 79.3487Z" fill="white" fill-opacity="0.5"/>
<path d="M41.1819 115.505C41.1819 115.902 41.1463 116.293 41.0702 116.679C40.989 117.071 40.8773 117.447 40.7249 117.813C40.5726 118.179 40.3899 118.525 40.1665 118.855C39.9482 119.18 39.6994 119.485 39.4201 119.765C39.1409 120.045 38.8363 120.299 38.5063 120.517C38.1763 120.736 37.831 120.924 37.4655 121.071C37.0999 121.224 36.7191 121.341 36.3333 121.417C35.9474 121.493 35.5514 121.534 35.1554 121.534C34.7594 121.534 34.3684 121.493 33.9826 121.417C33.5917 121.341 33.216 121.224 32.8504 121.071C32.4849 120.924 32.1396 120.736 31.8096 120.517C31.4796 120.299 31.175 120.045 30.8957 119.765C30.6165 119.485 30.3677 119.18 30.1443 118.855C29.926 118.525 29.7432 118.179 29.5909 117.813C29.4386 117.447 29.3218 117.071 29.2457 116.679C29.1695 116.293 29.1289 115.902 29.1289 115.505C29.1289 115.109 29.1695 114.717 29.2457 114.331C29.3218 113.944 29.4386 113.563 29.5909 113.202C29.7432 112.836 29.926 112.485 30.1443 112.16C30.3677 111.83 30.6165 111.525 30.8957 111.245C31.175 110.965 31.4796 110.716 31.8096 110.498C32.1396 110.274 32.4849 110.091 32.8504 109.939C33.216 109.786 33.5917 109.674 33.9826 109.598C34.3684 109.517 34.7594 109.481 35.1554 109.481C35.5514 109.481 35.9474 109.517 36.3333 109.598C36.7191 109.674 37.0999 109.786 37.4655 109.939C37.831 110.091 38.1763 110.274 38.5063 110.498C38.8363 110.716 39.1409 110.965 39.4201 111.245C39.6994 111.525 39.9482 111.83 40.1665 112.16C40.3899 112.485 40.5726 112.836 40.7249 113.202C40.8773 113.563 40.989 113.944 41.0702 114.331C41.1463 114.717 41.1819 115.109 41.1819 115.505Z" fill="white"/>
<path d="M147.769 67V17.65H160.649V36.69H181.019V17.65H193.829V67H181.019V47.26H160.649V67H147.769ZM202.798 67V17.65H237.658V27.59H215.118V36.97H236.048V46.91H215.118V57.06H237.658V67H202.798ZM239.094 67L262.194 17.65H272.344L295.444 67H282.564L276.754 53.42L281.654 56.99H252.814L257.784 53.42L251.974 67H239.094ZM267.164 31.09L259.044 50.48L257.084 47.12H277.454L275.494 50.48L267.304 31.09H267.164ZM298.433 67V17.65H311.313V56.29H333.293V67H298.433ZM341.704 67V28.15H326.024V17.65H370.264V28.15H354.584V67H341.704ZM375.132 67V17.65H388.012V36.69H408.382V17.65H421.192V67H408.382V47.26H388.012V67H375.132ZM188.804 137.77C186.238 137.77 183.718 137.56 181.244 137.14C178.771 136.72 176.484 136.113 174.384 135.32C172.284 134.527 170.464 133.593 168.924 132.52L172.494 122.51C173.941 123.443 175.551 124.26 177.324 124.96C179.098 125.66 180.964 126.22 182.924 126.64C184.884 127.013 186.844 127.2 188.804 127.2C191.884 127.2 194.031 126.803 195.244 126.01C196.504 125.17 197.134 124.143 197.134 122.93C197.134 122.183 196.948 121.553 196.574 121.04C196.201 120.527 195.571 120.083 194.684 119.71C193.844 119.29 192.701 118.94 191.254 118.66L183.064 116.91C178.584 115.977 175.248 114.343 173.054 112.01C170.861 109.677 169.764 106.667 169.764 102.98C169.764 99.7133 170.628 96.89 172.354 94.51C174.128 92.0833 176.578 90.2167 179.704 88.91C182.878 87.5567 186.518 86.88 190.624 86.88C192.911 86.88 195.104 87.09 197.204 87.51C199.351 87.93 201.334 88.56 203.154 89.4C204.974 90.1933 206.514 91.1267 207.774 92.2L204.204 101.58C202.431 100.273 200.354 99.27 197.974 98.57C195.641 97.8233 193.144 97.45 190.484 97.45C188.758 97.45 187.288 97.66 186.074 98.08C184.861 98.4533 183.928 99.0133 183.274 99.76C182.668 100.507 182.364 101.37 182.364 102.35C182.364 103.33 182.761 104.17 183.554 104.87C184.394 105.523 185.911 106.083 188.104 106.55L196.224 108.3C200.751 109.28 204.134 110.89 206.374 113.13C208.614 115.37 209.734 118.287 209.734 121.88C209.734 125.053 208.871 127.853 207.144 130.28C205.418 132.66 202.991 134.503 199.864 135.81C196.738 137.117 193.051 137.77 188.804 137.77ZM240.98 137.77C235.52 137.77 230.83 136.72 226.91 134.62C222.99 132.52 219.98 129.557 217.88 125.73C215.827 121.903 214.8 117.423 214.8 112.29C214.8 107.157 215.827 102.7 217.88 98.92C219.98 95.0933 222.99 92.13 226.91 90.03C230.83 87.93 235.52 86.88 240.98 86.88C244.247 86.88 247.397 87.37 250.43 88.35C253.463 89.33 255.913 90.66 257.78 92.34L253.93 102.49C251.877 100.997 249.823 99.9 247.77 99.2C245.717 98.4533 243.617 98.08 241.47 98.08C237.13 98.08 233.863 99.3167 231.67 101.79C229.477 104.217 228.38 107.717 228.38 112.29C228.38 116.91 229.477 120.457 231.67 122.93C233.863 125.357 237.13 126.57 241.47 126.57C243.617 126.57 245.717 126.22 247.77 125.52C249.823 124.773 251.877 123.653 253.93 122.16L257.78 132.31C255.913 133.943 253.463 135.273 250.43 136.3C247.397 137.28 244.247 137.77 240.98 137.77ZM264.117 137V87.65H287.847C293.447 87.65 297.763 89.0267 300.797 91.78C303.877 94.4867 305.417 98.2667 305.417 103.12C305.417 106.247 304.717 108.977 303.317 111.31C301.963 113.597 299.98 115.37 297.367 116.63C294.8 117.843 291.627 118.45 287.847 118.45L288.407 117.19H291.767C293.773 117.19 295.547 117.68 297.087 118.66C298.627 119.593 299.91 121.04 300.937 123L308.637 137H294.497L285.957 121.32C285.583 120.62 285.14 120.083 284.627 119.71C284.113 119.337 283.53 119.057 282.877 118.87C282.27 118.683 281.593 118.59 280.847 118.59H276.997V137H264.117ZM276.997 109.49H285.537C288.01 109.49 289.9 109 291.207 108.02C292.513 107.04 293.167 105.523 293.167 103.47C293.167 101.51 292.513 100.04 291.207 99.06C289.9 98.0333 288.01 97.52 285.537 97.52H276.997V109.49ZM313.541 137V87.65H326.421V137H313.541ZM335.347 137V87.65H359.147C364.467 87.65 368.574 88.7933 371.467 91.08C374.407 93.3667 375.877 96.47 375.877 100.39C375.877 103.283 375.037 105.757 373.357 107.81C371.724 109.863 369.484 111.263 366.637 112.01V110.89C368.924 111.31 370.837 112.057 372.377 113.13C373.917 114.203 375.107 115.58 375.947 117.26C376.787 118.893 377.207 120.807 377.207 123C377.207 125.847 376.507 128.32 375.107 130.42C373.707 132.52 371.701 134.153 369.087 135.32C366.521 136.44 363.441 137 359.847 137H335.347ZM347.667 127.55H358.097C359.077 127.55 359.941 127.48 360.687 127.34C361.434 127.2 362.064 126.99 362.577 126.71C363.091 126.43 363.534 126.08 363.907 125.66C364.281 125.193 364.537 124.68 364.677 124.12C364.864 123.513 364.957 122.837 364.957 122.09C364.957 121.39 364.864 120.76 364.677 120.2C364.537 119.593 364.281 119.08 363.907 118.66C363.534 118.193 363.091 117.82 362.577 117.54C362.064 117.26 361.434 117.05 360.687 116.91C359.941 116.77 359.077 116.7 358.097 116.7H347.667V127.55ZM347.667 107.25H356.837C359.171 107.25 360.874 106.83 361.947 105.99C363.067 105.15 363.627 103.867 363.627 102.14C363.627 100.413 363.067 99.1533 361.947 98.36C360.874 97.52 359.171 97.1 356.837 97.1H347.667V107.25ZM384.498 137V87.65H419.358V97.59H396.818V106.97H417.748V116.91H396.818V127.06H419.358V137H384.498Z" fill="#FEFEFE"/>
</g>
<defs>
<clipPath id="clip0_1409_1029">
<rect width="446" height="157" fill="white"/>
</clipPath>
</defs>
</svg>
