<svg width="1390" height="618" viewBox="0 0 1390 618" fill="none" xmlns="http://www.w3.org/2000/svg">
<g clip-path="url(#clip0_1462_1424)">
<rect width="1390" height="618" fill="white" fill-opacity="0.1"/>
<rect x="675" width="715" height="618" rx="110" fill="url(#paint0_linear_1462_1424)"/>
<path fill-rule="evenodd" clip-rule="evenodd" d="M801 71C773.386 71 751 93.3858 751 121V464C751 491.614 773.386 514 801 514H883.564H916.029H953.228H1084C1077.1 495.381 1073.27 474.877 1073.27 453.342C1073.27 368.139 1133.16 299.067 1207.03 299.067C1218.41 299.067 1229.45 300.706 1240 303.79V121C1240 93.3858 1217.61 71 1190 71H801Z" fill="white"/>
<g clip-path="url(#clip1_1462_1424)">
<path d="M837.001 454.596H929.998C947.287 454.596 956 445.801 956 428.278V294.524C956 277.339 947.557 268.138 930.741 268.138H927.162C927.229 268.747 927.229 269.491 927.229 270.1V276.798C927.229 277.948 927.162 279.166 926.958 280.181H930.47C939.453 280.181 944.046 285.661 944.046 294.727V428.076C944.046 437.479 939.048 442.621 929.323 442.621H837.677C827.951 442.621 822.954 437.479 822.954 428.076V294.727C822.954 285.661 827.546 280.181 836.529 280.181H840.04C839.838 279.166 839.77 277.948 839.77 276.798V270.1C839.77 269.491 839.77 268.747 839.838 268.138H836.258C819.442 268.138 811 277.339 811 294.524V428.278C811 445.801 819.712 454.596 837.001 454.596ZM856.789 286.946H910.21C914.938 286.946 917.842 284.037 917.842 279.098V270.033C917.842 265.094 914.938 262.184 910.21 262.184H901.498C901.025 252.713 893.124 245 883.533 245C873.876 245 865.974 252.713 865.501 262.184H856.789C852.062 262.184 849.158 265.094 849.158 270.033V279.098C849.158 284.037 852.062 286.946 856.789 286.946ZM883.533 270.438C879.211 270.438 875.767 266.853 875.767 262.726C875.767 258.396 879.211 254.945 883.533 254.945C887.788 254.945 891.233 258.396 891.233 262.726C891.233 266.853 887.788 270.438 883.533 270.438Z" fill="#71A8D3"/>
<path d="M844.364 381.393H922.638C925.272 381.393 927.366 379.295 927.366 376.657C927.366 374.087 925.272 371.989 922.638 371.989H844.364C841.73 371.989 839.637 374.087 839.637 376.657C839.637 379.295 841.73 381.393 844.364 381.393ZM844.364 414.476H889.073C891.707 414.476 893.868 412.311 893.868 409.741C893.868 407.102 891.774 405.004 889.073 405.004H844.364C841.73 405.004 839.637 407.102 839.637 409.741C839.637 412.311 841.798 414.476 844.364 414.476Z" fill="#71A8D3" fill-opacity="0.85"/>
<path d="M862.935 354.94C863.476 354.94 864.151 354.466 864.894 353.993C873.471 348.783 886.033 337.959 886.033 326.119C886.033 318.541 880.63 312.858 873.268 312.858C868.744 312.858 864.962 315.7 862.868 319.624C860.707 315.7 856.992 312.858 852.265 312.858C844.971 312.858 839.703 318.541 839.703 326.119C839.703 337.959 852.332 348.377 860.909 353.993C861.585 354.535 862.395 354.94 862.935 354.94Z" fill="#71A8D3" fill-opacity="0.85"/>
</g>
<path d="M23.7812 188.096V163.68H135.557V188.096H23.7812ZM118.533 103.2H144.965V260H118.533V103.2ZM13.2533 103.2H39.6853V260H13.2533V103.2ZM222.725 262.24C212.271 262.24 203.013 260 194.949 255.52C187.034 251.04 180.911 244.768 176.581 236.704C172.25 228.64 170.085 219.232 170.085 208.48C170.085 197.579 172.25 188.096 176.581 180.032C181.061 171.968 187.333 165.771 195.397 161.44C203.461 156.96 212.943 154.72 223.845 154.72C234.746 154.72 244.005 156.811 251.621 160.992C259.237 165.173 265.061 171.221 269.093 179.136C273.274 186.901 275.365 196.309 275.365 207.36C275.365 208.555 275.29 209.824 275.141 211.168C275.141 212.512 275.066 213.483 274.917 214.08H184.421V197.504H254.309L246.917 207.808C247.365 206.912 247.813 205.717 248.261 204.224C248.858 202.581 249.157 201.237 249.157 200.192C249.157 194.667 248.037 189.888 245.797 185.856C243.706 181.824 240.719 178.688 236.837 176.448C233.103 174.208 228.698 173.088 223.621 173.088C217.498 173.088 212.271 174.432 207.941 177.12C203.61 179.808 200.325 183.691 198.085 188.768C195.845 193.845 194.65 200.117 194.501 207.584C194.501 215.051 195.621 221.397 197.861 226.624C200.101 231.701 203.386 235.584 207.717 238.272C212.197 240.96 217.573 242.304 223.845 242.304C230.415 242.304 236.165 240.96 241.093 238.272C246.021 235.584 250.127 231.477 253.413 225.952L274.245 234.464C268.869 243.723 261.925 250.667 253.413 255.296C244.901 259.925 234.671 262.24 222.725 262.24ZM313.688 227.968C313.688 231.403 314.509 234.389 316.152 236.928C317.795 239.317 320.035 241.109 322.872 242.304C325.859 243.499 329.219 244.096 332.952 244.096C337.731 244.096 342.061 243.125 345.944 241.184C349.976 239.243 353.187 236.405 355.576 232.672C358.115 228.789 359.384 224.309 359.384 219.232L362.968 232.672C362.968 239.243 361.027 244.768 357.144 249.248C353.411 253.579 348.632 256.864 342.808 259.104C337.133 261.195 331.309 262.24 325.336 262.24C318.915 262.24 312.941 260.971 307.416 258.432C301.891 255.893 297.485 252.16 294.2 247.232C290.915 242.304 289.272 236.331 289.272 229.312C289.272 219.307 292.781 211.392 299.8 205.568C306.819 199.595 316.749 196.608 329.592 196.608C336.461 196.608 342.36 197.355 347.288 198.848C352.365 200.341 356.547 202.133 359.832 204.224C363.117 206.165 365.432 207.957 366.776 209.6V221.92C362.147 218.635 357.219 216.245 351.992 214.752C346.765 213.259 341.24 212.512 335.416 212.512C330.339 212.512 326.232 213.184 323.096 214.528C319.96 215.723 317.571 217.44 315.928 219.68C314.435 221.92 313.688 224.683 313.688 227.968ZM306.072 183.84L296.216 166.816C300.845 163.979 306.819 161.216 314.136 158.528C321.603 155.84 330.115 154.496 339.672 154.496C348.184 154.496 355.651 155.765 362.072 158.304C368.643 160.843 373.795 164.501 377.528 169.28C381.261 173.909 383.128 179.659 383.128 186.528V260H359.384V191.232C359.384 187.947 358.787 185.259 357.592 183.168C356.547 181.077 355.053 179.36 353.112 178.016C351.171 176.672 348.856 175.701 346.168 175.104C343.48 174.507 340.568 174.208 337.432 174.208C332.653 174.208 328.099 174.805 323.768 176C319.587 177.045 315.928 178.389 312.792 180.032C309.805 181.525 307.565 182.795 306.072 183.84ZM411.331 85.28H435.523V260H411.331V85.28ZM452.12 156.96H510.584V178.24H452.12V156.96ZM469.368 121.12H493.336V260H469.368V121.12ZM551.461 85.28V260H527.269V85.28H551.461ZM593.573 197.28C593.573 189.664 592.005 183.915 588.869 180.032C585.882 176.149 581.029 174.208 574.309 174.208C569.829 174.208 565.871 175.179 562.437 177.12C559.002 179.061 556.314 181.749 554.373 185.184C552.431 188.619 551.461 192.651 551.461 197.28H545.637C545.637 189.067 547.13 181.749 550.117 175.328C553.103 168.907 557.285 163.755 562.661 159.872C568.186 155.989 574.831 154.048 582.597 154.048C590.213 154.048 596.634 155.541 601.861 158.528C607.237 161.515 611.269 165.995 613.957 171.968C616.645 177.792 617.989 185.109 617.989 193.92V260H593.573V197.28ZM25.7448 462.6C29.1794 468.573 32.8381 473.875 36.7208 478.504C40.7528 482.984 45.1581 486.493 49.9368 489.032C54.7154 491.421 60.0914 492.616 66.0648 492.616C73.2328 492.616 79.0568 490.675 83.5368 486.792C88.0168 482.909 90.2568 477.907 90.2568 471.784C90.2568 465.96 88.8381 461.331 86.0008 457.896C83.1634 454.312 79.2061 451.325 74.1288 448.936C69.2008 446.397 63.4514 443.933 56.8808 441.544C52.9981 440.2 48.6674 438.408 43.8888 436.168C39.1101 433.779 34.5554 430.867 30.2248 427.432C25.8941 423.848 22.3101 419.517 19.4728 414.44C16.6354 409.213 15.2168 402.941 15.2168 395.624C15.2168 387.261 17.3821 379.944 21.7128 373.672C26.0434 367.251 31.8674 362.323 39.1848 358.888C46.6514 355.304 55.0888 353.512 64.4968 353.512C73.7554 353.512 81.8194 355.155 88.6888 358.44C95.5581 361.725 101.307 365.907 105.937 370.984C110.715 376.061 114.449 381.363 117.137 386.888L95.6328 398.984C93.6914 395.101 91.2274 391.517 88.2408 388.232C85.2541 384.797 81.7448 382.109 77.7128 380.168C73.8301 378.077 69.2754 377.032 64.0488 377.032C56.7314 377.032 51.3554 378.749 47.9208 382.184C44.4861 385.469 42.7688 389.352 42.7688 393.832C42.7688 397.864 43.9634 401.523 46.3528 404.808C48.8914 407.944 52.7741 410.931 58.0008 413.768C63.2274 416.605 70.0221 419.517 78.3848 422.504C83.0141 424.147 87.6434 426.237 92.2728 428.776C97.0514 431.315 101.382 434.525 105.265 438.408C109.147 442.141 112.209 446.547 114.449 451.624C116.838 456.701 118.033 462.675 118.033 469.544C118.033 476.861 116.614 483.432 113.777 489.256C110.939 495.08 107.057 500.008 102.129 504.04C97.2008 507.923 91.6008 510.909 85.3288 513C79.2061 515.24 72.7848 516.36 66.0648 516.36C56.8061 516.36 48.2194 514.568 40.3048 510.984C32.5394 507.251 25.7448 502.323 19.9208 496.2C14.0968 490.077 9.46742 483.432 6.03275 476.264L25.7448 462.6ZM159.272 461.48C159.272 468.051 160.69 473.8 163.528 478.728C166.365 483.507 170.173 487.315 174.952 490.152C179.88 492.989 185.33 494.408 191.304 494.408C196.232 494.408 200.936 493.661 205.416 492.168C209.896 490.675 213.853 488.584 217.288 485.896C220.722 483.208 223.261 480.221 224.904 476.936V503.592C221.32 507.176 216.466 510.013 210.344 512.104C204.221 514.195 197.501 515.24 190.184 515.24C179.581 515.24 170.024 513 161.512 508.52C153.149 503.891 146.504 497.544 141.576 489.48C136.797 481.267 134.408 471.933 134.408 461.48C134.408 450.877 136.797 441.544 141.576 433.48C146.504 425.416 153.149 419.144 161.512 414.664C170.024 410.035 179.581 407.72 190.184 407.72C197.501 407.72 204.221 408.765 210.344 410.856C216.466 412.947 221.32 415.784 224.904 419.368V446.024C223.261 442.589 220.648 439.603 217.064 437.064C213.629 434.376 209.672 432.285 205.192 430.792C200.712 429.299 196.082 428.552 191.304 428.552C185.33 428.552 179.88 429.971 174.952 432.808C170.173 435.645 166.365 439.528 163.528 444.456C160.69 449.384 159.272 455.059 159.272 461.48ZM275.612 409.96V513H251.644V409.96H275.612ZM306.3 435.72C304.06 433.928 301.969 432.584 300.028 431.688C298.086 430.792 295.622 430.344 292.636 430.344C288.604 430.344 285.318 431.389 282.78 433.48C280.241 435.571 278.374 438.483 277.18 442.216C276.134 445.8 275.612 450.056 275.612 454.984L267.548 450.28C267.548 442.067 269.041 434.824 272.028 428.552C275.164 422.131 279.121 417.053 283.9 413.32C288.828 409.587 293.905 407.72 299.132 407.72C302.865 407.72 306.374 408.317 309.66 409.512C312.945 410.557 315.708 412.499 317.948 415.336L306.3 435.72ZM333.654 368.968C333.654 364.787 335.147 361.277 338.134 358.44C341.27 355.603 344.854 354.184 348.886 354.184C353.216 354.184 356.8 355.603 359.638 358.44C362.624 361.277 364.118 364.787 364.118 368.968C364.118 373 362.624 376.509 359.638 379.496C356.8 382.333 353.216 383.752 348.886 383.752C344.854 383.752 341.27 382.333 338.134 379.496C335.147 376.509 333.654 373 333.654 368.968ZM337.014 409.96H360.758V513H337.014V409.96ZM417.57 338.28V513H393.154V338.28H417.57ZM502.914 461.48C502.914 472.68 500.599 482.312 495.97 490.376C491.34 498.44 485.218 504.637 477.602 508.968C469.986 513.149 461.698 515.24 452.738 515.24C444.226 515.24 436.61 513.075 429.89 508.744C423.319 504.413 418.167 498.216 414.434 490.152C410.7 482.088 408.834 472.531 408.834 461.48C408.834 450.28 410.7 440.723 414.434 432.808C418.167 424.744 423.319 418.547 429.89 414.216C436.61 409.885 444.226 407.72 452.738 407.72C461.698 407.72 469.986 409.885 477.602 414.216C485.218 418.397 491.34 424.52 495.97 432.584C500.599 440.499 502.914 450.131 502.914 461.48ZM477.826 461.48C477.826 454.611 476.407 448.712 473.57 443.784C470.732 438.856 466.924 435.123 462.146 432.584C457.516 430.045 452.364 428.776 446.69 428.776C442.06 428.776 437.506 430.045 433.026 432.584C428.546 435.123 424.812 438.856 421.826 443.784C418.988 448.563 417.57 454.461 417.57 461.48C417.57 468.499 418.988 474.472 421.826 479.4C424.812 484.179 428.546 487.837 433.026 490.376C437.506 492.915 442.06 494.184 446.69 494.184C452.364 494.184 457.516 492.915 462.146 490.376C466.924 487.837 470.732 484.104 473.57 479.176C476.407 474.248 477.826 468.349 477.826 461.48ZM570.756 515.24C560.303 515.24 551.044 513 542.98 508.52C535.065 504.04 528.943 497.768 524.612 489.704C520.281 481.64 518.116 472.232 518.116 461.48C518.116 450.579 520.281 441.096 524.612 433.032C529.092 424.968 535.364 418.771 543.428 414.44C551.492 409.96 560.975 407.72 571.876 407.72C582.777 407.72 592.036 409.811 599.652 413.992C607.268 418.173 613.092 424.221 617.124 432.136C621.305 439.901 623.396 449.309 623.396 460.36C623.396 461.555 623.321 462.824 623.172 464.168C623.172 465.512 623.097 466.483 622.948 467.08H532.452V450.504H602.34L594.948 460.808C595.396 459.912 595.844 458.717 596.292 457.224C596.889 455.581 597.188 454.237 597.188 453.192C597.188 447.667 596.068 442.888 593.828 438.856C591.737 434.824 588.751 431.688 584.868 429.448C581.135 427.208 576.729 426.088 571.652 426.088C565.529 426.088 560.303 427.432 555.972 430.12C551.641 432.808 548.356 436.691 546.116 441.768C543.876 446.845 542.681 453.117 542.532 460.584C542.532 468.051 543.652 474.397 545.892 479.624C548.132 484.701 551.417 488.584 555.748 491.272C560.228 493.96 565.604 495.304 571.876 495.304C578.447 495.304 584.196 493.96 589.124 491.272C594.052 488.584 598.159 484.477 601.444 478.952L622.276 487.464C616.9 496.723 609.956 503.667 601.444 508.296C592.932 512.925 582.703 515.24 570.756 515.24Z" fill="url(#paint1_linear_1462_1424)"/>
<path d="M810.503 476C810.503 473.238 812.742 471 815.503 471H924.693C929.247 471 931.43 476.592 928.081 479.677L818.888 580.272C815.684 583.224 810.5 580.951 810.5 576.595L810.503 476Z" fill="white"/>
<path d="M1171.56 235.938C1174.69 235.938 1177.06 233.438 1177.06 230.375V188.438C1177.06 185.375 1174.69 182.812 1171.56 182.812C1168.37 182.812 1166 185.375 1166 188.438V230.375C1166 233.438 1168.37 235.938 1171.56 235.938Z" fill="#71A8D3"/>
<path d="M1144.94 273.938C1148.06 273.938 1150.5 271.438 1150.5 268.375V150.438C1150.5 147.375 1148.06 144.812 1144.94 144.812C1141.75 144.812 1139.44 147.375 1139.44 150.438V268.375C1139.44 271.438 1141.75 273.938 1144.94 273.938Z" fill="#71A8D3"/>
<path d="M1118.31 251.188C1121.5 251.188 1123.88 248.75 1123.88 245.688V173.125C1123.88 170.062 1121.5 167.562 1118.31 167.562C1115.12 167.562 1112.81 170.062 1112.81 173.125V245.688C1112.81 248.75 1115.12 251.188 1118.31 251.188Z" fill="#71A8D3"/>
<path d="M1091.69 292.812C1094.88 292.812 1097.25 290.375 1097.25 287.312V131.5C1097.25 128.438 1094.88 126 1091.69 126C1088.56 126 1086.19 128.438 1086.19 131.5V287.312C1086.19 290.375 1088.56 292.812 1091.69 292.812Z" fill="#71A8D3"/>
<path d="M1065.06 260.312C1068.25 260.312 1070.69 257.875 1070.69 254.812V164C1070.69 160.938 1068.25 158.438 1065.06 158.438C1061.94 158.438 1059.62 160.938 1059.62 164V254.812C1059.62 257.875 1061.94 260.312 1065.06 260.312Z" fill="#71A8D3"/>
<path d="M1038.5 228.562C1041.69 228.562 1044.06 226.125 1044.06 223V195.812C1044.06 192.688 1041.69 190.188 1038.5 190.188C1035.31 190.188 1033 192.688 1033 195.812V223C1033 226.125 1035.31 228.562 1038.5 228.562Z" fill="#71A8D3"/>
<g clip-path="url(#clip2_1462_1424)">
<path d="M1239.81 382.416V392.182H1234.53C1232.72 392.182 1230.99 392.281 1229.36 392.509V382.892C1229.36 369.733 1222.05 362.885 1209.46 362.885H1135.35C1122.76 362.885 1115.51 369.733 1115.51 382.892V428.922C1115.51 442.142 1122.76 448.93 1135.35 448.93H1143.31C1146.1 448.93 1148.35 450.598 1148.35 454.23V473.404L1172.17 452.086C1174.9 449.704 1176.56 448.93 1180.19 448.93H1204.89V458.755H1179.77L1154.65 480.251C1150.85 483.586 1148.65 485.313 1145.5 485.313C1141.05 485.313 1138.49 482.157 1138.49 477.215V458.755H1134.58C1116.58 458.755 1105 448.096 1105 429.399V382.416C1105 363.778 1116.58 353 1134.58 353H1210.24C1228.23 353 1239.81 363.778 1239.81 382.416Z" fill="white"/>
<path d="M1179.35 377.533L1198.71 429.339C1199.96 432.912 1198.12 436.366 1194.2 436.366C1191.71 436.366 1190.16 434.996 1189.21 432.257L1184.11 417.847H1160.88L1155.78 432.257C1154.83 434.996 1153.28 436.366 1150.79 436.366C1146.93 436.366 1144.97 432.971 1146.27 429.339L1165.58 377.533C1166.76 374.318 1169.14 372.591 1172.46 372.591C1175.79 372.591 1178.17 374.318 1179.35 377.533ZM1163.62 409.51H1181.25L1172.41 384.529L1163.62 409.51Z" fill="white"/>
<path d="M1339.7 421.598V468.58C1339.7 487.218 1328.12 497.937 1310.13 497.937H1306.21V516.337C1306.21 521.279 1303.65 524.495 1299.2 524.495C1296.05 524.495 1293.85 522.708 1290.05 519.434L1264.99 497.937H1234.52C1215.82 497.937 1204.89 487.278 1204.89 468.64V421.598C1204.89 402.9 1215.82 392.182 1234.52 392.182H1310.13C1328.12 392.182 1339.7 402.9 1339.7 421.598ZM1248.72 427.91C1246.05 427.91 1244.03 429.815 1244.03 432.316C1244.03 434.936 1246.05 436.842 1248.72 436.842H1254.9C1256.91 444.464 1260.78 451.609 1266.42 457.683C1261.01 461.434 1254.95 463.936 1247.77 465.663C1245.16 466.258 1243.67 468.759 1244.21 471.32C1244.92 474.118 1247.71 475.249 1250.74 474.475C1258.82 472.629 1266.36 469.176 1273.25 463.995C1279.9 469.116 1287.44 472.57 1295.04 474.416C1298.43 475.19 1301.28 474.237 1301.99 471.32C1302.7 468.58 1301.4 466.258 1298.55 465.663C1291.42 463.995 1285.48 461.494 1279.96 457.683C1285.54 451.729 1289.4 444.642 1291.42 436.842H1297.6C1300.27 436.842 1302.29 434.936 1302.29 432.316C1302.29 429.815 1300.27 427.91 1297.6 427.91H1248.72ZM1273.25 452.086C1269.09 447.62 1266 442.439 1264.16 436.842H1282.15C1280.37 442.38 1277.34 447.56 1273.25 452.086ZM1266.06 408.2C1263.74 409.331 1262.79 412.011 1263.98 414.452L1267.96 422.848C1269.03 425.23 1271.76 426.183 1274.08 425.111C1276.57 423.861 1277.52 421.181 1276.33 418.859L1272.3 410.522C1271.11 408.021 1268.5 406.949 1266.06 408.2Z" fill="white"/>
</g>
<g clip-path="url(#clip3_1462_1424)">
<path d="M811 174.938V165.875H838.188L853.25 129.312C854.938 125.188 860.75 125.312 862 129.125L882.125 189.938L889.125 169.812C890 167.25 891.562 165.875 894.5 165.875H914.5L929.562 129.312C931.25 125.188 937.062 125.312 938.312 129.125L958.438 189.938L965.438 169.812C966.312 167.25 967.875 165.875 970.812 165.875H1000.38V174.938H973.125L962.938 206.625C961.688 210.688 955.375 210.75 954.125 206.812L934 143.438L922.25 171C921.188 173.625 919.812 174.938 916.875 174.938H896.812L886.625 206.625C885.312 210.688 879.062 210.75 877.812 206.812L857.688 143.438L846.25 171C845.188 173.625 843.812 174.938 839.625 174.938H811ZM835.312 241.938H976C992.188 241.938 1000.38 233.75 1000.38 217.875V119.125C1000.38 103.188 992.188 95 976 95H835.312C819.188 95 811 103.125 811 119.125V217.875C811 233.875 819.188 241.938 835.312 241.938Z" fill="#71A8D3" fill-opacity="0.85"/>
</g>
</g>
<defs>
<linearGradient id="paint0_linear_1462_1424" x1="675" y1="0" x2="1390" y2="618" gradientUnits="userSpaceOnUse">
<stop stop-color="#217D88" stop-opacity="0.5"/>
<stop offset="1" stop-color="#217D88"/>
</linearGradient>
<linearGradient id="paint1_linear_1462_1424" x1="-5" y1="76" x2="658" y2="513" gradientUnits="userSpaceOnUse">
<stop stop-color="#217D88" stop-opacity="0.6"/>
<stop offset="1" stop-color="#217D88"/>
</linearGradient>
<clipPath id="clip0_1462_1424">
<rect width="1390" height="618" fill="white"/>
</clipPath>
<clipPath id="clip1_1462_1424">
<rect width="145" height="219" fill="white" transform="translate(811 245)"/>
</clipPath>
<clipPath id="clip2_1462_1424">
<rect width="234.702" height="171.554" fill="white" transform="translate(1105 353)"/>
</clipPath>
<clipPath id="clip3_1462_1424">
<rect width="189.375" height="146.938" fill="white" transform="translate(811 95)"/>
</clipPath>
</defs>
</svg>
